<mxfile host="app.diagrams.net" agent="Mozilla/5.0 (Windows NT 10.0; Win64; x64) AppleWebKit/537.36 (KHTML, like Gecko) Chrome/131.0.0.0 Safari/537.36" version="25.0.3">
  <diagram name="Side-1" id="Y06sk_3dD-budyYBz75a">
    <mxGraphModel dx="1323" dy="820" grid="0" gridSize="10" guides="1" tooltips="1" connect="1" arrows="1" fold="1" page="0" pageScale="1" pageWidth="827" pageHeight="1169" math="0" shadow="0">
      <root>
        <mxCell id="0" />
        <mxCell id="1" parent="0" />
        <mxCell id="diXyLnKeCmdb708wemNT-78" value="Inserting" style="shape=note;size=20;whiteSpace=wrap;html=1;fillColor=#dae8fc;strokeColor=#6c8ebf;" vertex="1" parent="1">
          <mxGeometry x="84" y="260" width="90" height="30" as="geometry" />
        </mxCell>
        <mxCell id="diXyLnKeCmdb708wemNT-79" value="Display" style="rounded=1;arcSize=10;whiteSpace=wrap;html=1;align=center;fillColor=#d5e8d4;strokeColor=#82b366;" vertex="1" parent="1">
          <mxGeometry x="89" y="320" width="80" height="30" as="geometry" />
        </mxCell>
        <mxCell id="diXyLnKeCmdb708wemNT-80" value="Condition" style="shape=hexagon;perimeter=hexagonPerimeter2;whiteSpace=wrap;html=1;fixedSize=1;fillColor=#fff2cc;strokeColor=#d6b656;" vertex="1" parent="1">
          <mxGeometry x="84" y="440" width="90" height="30" as="geometry" />
        </mxCell>
        <mxCell id="diXyLnKeCmdb708wemNT-81" value="Button" style="ellipse;whiteSpace=wrap;html=1;fillColor=#f8cecc;strokeColor=#b85450;" vertex="1" parent="1">
          <mxGeometry x="89" y="380" width="80" height="30" as="geometry" />
        </mxCell>
        <mxCell id="diXyLnKeCmdb708wemNT-82" style="edgeStyle=orthogonalEdgeStyle;rounded=0;orthogonalLoop=1;jettySize=auto;html=1;exitX=0.5;exitY=1;exitDx=0;exitDy=0;entryX=0.5;entryY=0;entryDx=0;entryDy=0;" edge="1" parent="1" source="diXyLnKeCmdb708wemNT-83">
          <mxGeometry relative="1" as="geometry">
            <mxPoint x="320" y="190" as="targetPoint" />
          </mxGeometry>
        </mxCell>
        <mxCell id="diXyLnKeCmdb708wemNT-83" value="Public Timeline" style="rounded=1;arcSize=10;whiteSpace=wrap;html=1;align=center;fillColor=#d5e8d4;strokeColor=#82b366;" vertex="1" parent="1">
          <mxGeometry x="270" y="140" width="100" height="30" as="geometry" />
        </mxCell>
        <mxCell id="diXyLnKeCmdb708wemNT-165" style="edgeStyle=orthogonalEdgeStyle;rounded=0;orthogonalLoop=1;jettySize=auto;html=1;exitX=0.5;exitY=1;exitDx=0;exitDy=0;entryX=0.5;entryY=0;entryDx=0;entryDy=0;" edge="1" parent="1" source="diXyLnKeCmdb708wemNT-109" target="diXyLnKeCmdb708wemNT-112">
          <mxGeometry relative="1" as="geometry" />
        </mxCell>
        <mxCell id="diXyLnKeCmdb708wemNT-109" value="Public Timeline" style="ellipse;whiteSpace=wrap;html=1;fillColor=#f8cecc;strokeColor=#b85450;" vertex="1" parent="1">
          <mxGeometry x="270" y="487.5" width="100" height="30" as="geometry" />
        </mxCell>
        <mxCell id="diXyLnKeCmdb708wemNT-112" value="Public Timeline" style="rounded=1;arcSize=10;whiteSpace=wrap;html=1;align=center;fillColor=#d5e8d4;strokeColor=#82b366;" vertex="1" parent="1">
          <mxGeometry x="270" y="537.5" width="100" height="30" as="geometry" />
        </mxCell>
        <mxCell id="diXyLnKeCmdb708wemNT-155" style="edgeStyle=orthogonalEdgeStyle;rounded=0;orthogonalLoop=1;jettySize=auto;html=1;exitX=0.5;exitY=1;exitDx=0;exitDy=0;entryX=0.5;entryY=0;entryDx=0;entryDy=0;" edge="1" parent="1" source="diXyLnKeCmdb708wemNT-117" target="diXyLnKeCmdb708wemNT-154">
          <mxGeometry relative="1" as="geometry" />
        </mxCell>
        <mxCell id="diXyLnKeCmdb708wemNT-117" value="{UserName}" style="ellipse;whiteSpace=wrap;html=1;fillColor=#f8cecc;strokeColor=#b85450;" vertex="1" parent="1">
          <mxGeometry x="270" y="340" width="100" height="30" as="geometry" />
        </mxCell>
        <mxCell id="diXyLnKeCmdb708wemNT-159" style="edgeStyle=orthogonalEdgeStyle;rounded=0;orthogonalLoop=1;jettySize=auto;html=1;exitX=0.5;exitY=1;exitDx=0;exitDy=0;entryX=0.5;entryY=0;entryDx=0;entryDy=0;" edge="1" parent="1" source="diXyLnKeCmdb708wemNT-118" target="diXyLnKeCmdb708wemNT-158">
          <mxGeometry relative="1" as="geometry" />
        </mxCell>
        <mxCell id="diXyLnKeCmdb708wemNT-118" value="Latest 32 Cheeps Readable" style="rounded=1;arcSize=10;whiteSpace=wrap;html=1;align=center;fillColor=#d5e8d4;strokeColor=#82b366;" vertex="1" parent="1">
          <mxGeometry x="235" y="190" width="170" height="30" as="geometry" />
        </mxCell>
        <mxCell id="diXyLnKeCmdb708wemNT-120" style="edgeStyle=orthogonalEdgeStyle;rounded=0;orthogonalLoop=1;jettySize=auto;html=1;exitX=0.5;exitY=1;exitDx=0;exitDy=0;entryX=0.5;entryY=0;entryDx=0;entryDy=0;" edge="1" parent="1" source="diXyLnKeCmdb708wemNT-121" target="diXyLnKeCmdb708wemNT-123">
          <mxGeometry relative="1" as="geometry" />
        </mxCell>
        <mxCell id="diXyLnKeCmdb708wemNT-121" value="Public Timeline" style="rounded=1;arcSize=10;whiteSpace=wrap;html=1;align=center;fillColor=#d5e8d4;strokeColor=#82b366;" vertex="1" parent="1">
          <mxGeometry x="510.06000000000006" y="140" width="100" height="30" as="geometry" />
        </mxCell>
        <mxCell id="diXyLnKeCmdb708wemNT-122" style="edgeStyle=orthogonalEdgeStyle;rounded=0;orthogonalLoop=1;jettySize=auto;html=1;exitX=0.5;exitY=1;exitDx=0;exitDy=0;entryX=0.5;entryY=0;entryDx=0;entryDy=0;" edge="1" parent="1" source="diXyLnKeCmdb708wemNT-123" target="diXyLnKeCmdb708wemNT-144">
          <mxGeometry relative="1" as="geometry" />
        </mxCell>
        <mxCell id="diXyLnKeCmdb708wemNT-123" value="Register" style="ellipse;whiteSpace=wrap;html=1;fillColor=#f8cecc;strokeColor=#b85450;" vertex="1" parent="1">
          <mxGeometry x="510.06000000000006" y="190" width="100" height="30" as="geometry" />
        </mxCell>
        <mxCell id="diXyLnKeCmdb708wemNT-124" style="edgeStyle=orthogonalEdgeStyle;rounded=0;orthogonalLoop=1;jettySize=auto;html=1;exitX=0.5;exitY=1;exitDx=0;exitDy=0;entryX=0.5;entryY=0;entryDx=0;entryDy=0;" edge="1" parent="1" source="diXyLnKeCmdb708wemNT-125" target="diXyLnKeCmdb708wemNT-128">
          <mxGeometry relative="1" as="geometry" />
        </mxCell>
        <mxCell id="diXyLnKeCmdb708wemNT-125" value="Register Page" style="rounded=1;arcSize=10;whiteSpace=wrap;html=1;align=center;fillColor=#d5e8d4;strokeColor=#82b366;" vertex="1" parent="1">
          <mxGeometry x="510.06000000000006" y="290" width="100" height="30" as="geometry" />
        </mxCell>
        <mxCell id="diXyLnKeCmdb708wemNT-126" style="edgeStyle=orthogonalEdgeStyle;rounded=0;orthogonalLoop=1;jettySize=auto;html=1;exitX=0.5;exitY=1;exitDx=0;exitDy=0;entryX=0.5;entryY=0;entryDx=0;entryDy=0;" edge="1" parent="1" source="diXyLnKeCmdb708wemNT-128" target="diXyLnKeCmdb708wemNT-130">
          <mxGeometry relative="1" as="geometry" />
        </mxCell>
        <mxCell id="diXyLnKeCmdb708wemNT-127" style="edgeStyle=orthogonalEdgeStyle;rounded=0;orthogonalLoop=1;jettySize=auto;html=1;exitX=1;exitY=0.5;exitDx=0;exitDy=0;entryX=0.5;entryY=0;entryDx=0;entryDy=0;" edge="1" parent="1" source="diXyLnKeCmdb708wemNT-128" target="diXyLnKeCmdb708wemNT-134">
          <mxGeometry relative="1" as="geometry">
            <Array as="points">
              <mxPoint x="680.0600000000001" y="355" />
              <mxPoint x="680.0600000000001" y="560" />
              <mxPoint x="560.0600000000001" y="560" />
            </Array>
          </mxGeometry>
        </mxCell>
        <mxCell id="diXyLnKeCmdb708wemNT-128" value="Github Login" style="shape=hexagon;perimeter=hexagonPerimeter2;whiteSpace=wrap;html=1;fixedSize=1;fillColor=#fff2cc;strokeColor=#d6b656;" vertex="1" parent="1">
          <mxGeometry x="510.06000000000006" y="340" width="100" height="30" as="geometry" />
        </mxCell>
        <mxCell id="diXyLnKeCmdb708wemNT-129" style="edgeStyle=orthogonalEdgeStyle;rounded=0;orthogonalLoop=1;jettySize=auto;html=1;exitX=0.5;exitY=1;exitDx=0;exitDy=0;entryX=0.5;entryY=0;entryDx=0;entryDy=0;" edge="1" parent="1" source="diXyLnKeCmdb708wemNT-130" target="diXyLnKeCmdb708wemNT-132">
          <mxGeometry relative="1" as="geometry" />
        </mxCell>
        <mxCell id="diXyLnKeCmdb708wemNT-130" value="GitHub" style="ellipse;whiteSpace=wrap;html=1;fillColor=#f8cecc;strokeColor=#b85450;" vertex="1" parent="1">
          <mxGeometry x="510.06000000000006" y="390" width="100" height="30" as="geometry" />
        </mxCell>
        <mxCell id="diXyLnKeCmdb708wemNT-131" style="edgeStyle=orthogonalEdgeStyle;rounded=0;orthogonalLoop=1;jettySize=auto;html=1;exitX=0.5;exitY=1;exitDx=0;exitDy=0;entryX=0.5;entryY=0;entryDx=0;entryDy=0;" edge="1" parent="1" source="diXyLnKeCmdb708wemNT-132" target="diXyLnKeCmdb708wemNT-151">
          <mxGeometry relative="1" as="geometry" />
        </mxCell>
        <mxCell id="diXyLnKeCmdb708wemNT-132" value="GitHub Login Page" style="rounded=1;arcSize=10;whiteSpace=wrap;html=1;align=center;fillColor=#d5e8d4;strokeColor=#82b366;" vertex="1" parent="1">
          <mxGeometry x="480.06" y="440" width="160" height="30" as="geometry" />
        </mxCell>
        <mxCell id="diXyLnKeCmdb708wemNT-133" style="edgeStyle=orthogonalEdgeStyle;rounded=0;orthogonalLoop=1;jettySize=auto;html=1;exitX=0.5;exitY=1;exitDx=0;exitDy=0;entryX=0.5;entryY=0;entryDx=0;entryDy=0;" edge="1" parent="1" source="diXyLnKeCmdb708wemNT-134" target="diXyLnKeCmdb708wemNT-138">
          <mxGeometry relative="1" as="geometry" />
        </mxCell>
        <mxCell id="diXyLnKeCmdb708wemNT-134" value="Register User" style="rounded=1;arcSize=10;whiteSpace=wrap;html=1;align=center;fillColor=#d5e8d4;strokeColor=#82b366;" vertex="1" parent="1">
          <mxGeometry x="510.06000000000006" y="610" width="100" height="30" as="geometry" />
        </mxCell>
        <mxCell id="diXyLnKeCmdb708wemNT-135" style="edgeStyle=orthogonalEdgeStyle;rounded=0;orthogonalLoop=1;jettySize=auto;html=1;exitX=0;exitY=0.5;exitDx=0;exitDy=0;exitPerimeter=0;entryX=1;entryY=0.5;entryDx=0;entryDy=0;" edge="1" parent="1" source="diXyLnKeCmdb708wemNT-136" target="diXyLnKeCmdb708wemNT-134">
          <mxGeometry relative="1" as="geometry" />
        </mxCell>
        <mxCell id="diXyLnKeCmdb708wemNT-136" value="UserName, Email, Password" style="shape=note;size=20;whiteSpace=wrap;html=1;fillColor=#dae8fc;strokeColor=#6c8ebf;align=left;" vertex="1" parent="1">
          <mxGeometry x="630.0600000000001" y="610" width="180" height="30" as="geometry" />
        </mxCell>
        <mxCell id="diXyLnKeCmdb708wemNT-137" style="edgeStyle=orthogonalEdgeStyle;rounded=0;orthogonalLoop=1;jettySize=auto;html=1;exitX=0.5;exitY=1;exitDx=0;exitDy=0;entryX=0.5;entryY=0;entryDx=0;entryDy=0;" edge="1" parent="1" source="diXyLnKeCmdb708wemNT-138" target="diXyLnKeCmdb708wemNT-141">
          <mxGeometry relative="1" as="geometry" />
        </mxCell>
        <mxCell id="diXyLnKeCmdb708wemNT-138" value="Register" style="ellipse;whiteSpace=wrap;html=1;fillColor=#f8cecc;strokeColor=#b85450;" vertex="1" parent="1">
          <mxGeometry x="510.06000000000006" y="660" width="100" height="30" as="geometry" />
        </mxCell>
        <mxCell id="diXyLnKeCmdb708wemNT-139" style="edgeStyle=orthogonalEdgeStyle;rounded=0;orthogonalLoop=1;jettySize=auto;html=1;exitX=0.5;exitY=1;exitDx=0;exitDy=0;entryX=0.5;entryY=0;entryDx=0;entryDy=0;" edge="1" parent="1" source="diXyLnKeCmdb708wemNT-141" target="diXyLnKeCmdb708wemNT-142">
          <mxGeometry relative="1" as="geometry" />
        </mxCell>
        <mxCell id="diXyLnKeCmdb708wemNT-140" style="edgeStyle=orthogonalEdgeStyle;rounded=0;orthogonalLoop=1;jettySize=auto;html=1;exitX=1;exitY=0.5;exitDx=0;exitDy=0;entryX=1;entryY=0.5;entryDx=0;entryDy=0;" edge="1" parent="1" source="diXyLnKeCmdb708wemNT-141" target="diXyLnKeCmdb708wemNT-144">
          <mxGeometry relative="1" as="geometry">
            <Array as="points">
              <mxPoint x="820.0600000000001" y="725" />
              <mxPoint x="820.0600000000001" y="255" />
            </Array>
          </mxGeometry>
        </mxCell>
        <mxCell id="diXyLnKeCmdb708wemNT-141" value="Succesful" style="shape=hexagon;perimeter=hexagonPerimeter2;whiteSpace=wrap;html=1;fixedSize=1;fillColor=#fff2cc;strokeColor=#d6b656;" vertex="1" parent="1">
          <mxGeometry x="510.06000000000006" y="710" width="100" height="30" as="geometry" />
        </mxCell>
        <mxCell id="diXyLnKeCmdb708wemNT-142" value="Public Timeline" style="rounded=1;arcSize=10;whiteSpace=wrap;html=1;align=center;fillColor=#d5e8d4;strokeColor=#82b366;" vertex="1" parent="1">
          <mxGeometry x="510.06000000000006" y="759.5" width="100" height="30" as="geometry" />
        </mxCell>
        <mxCell id="diXyLnKeCmdb708wemNT-143" style="edgeStyle=orthogonalEdgeStyle;rounded=0;orthogonalLoop=1;jettySize=auto;html=1;exitX=0.5;exitY=1;exitDx=0;exitDy=0;entryX=0.5;entryY=0;entryDx=0;entryDy=0;" edge="1" parent="1" source="diXyLnKeCmdb708wemNT-144" target="diXyLnKeCmdb708wemNT-125">
          <mxGeometry relative="1" as="geometry" />
        </mxCell>
        <mxCell id="diXyLnKeCmdb708wemNT-144" value="" style="shape=hexagon;perimeter=hexagonPerimeter2;whiteSpace=wrap;html=1;fixedSize=1;fillColor=#fff2cc;strokeColor=#d6b656;size=40;" vertex="1" parent="1">
          <mxGeometry x="540.0600000000001" y="240" width="40" height="30" as="geometry" />
        </mxCell>
        <mxCell id="diXyLnKeCmdb708wemNT-145" value="&lt;font style=&quot;font-size: 7px;&quot;&gt;Yes&lt;/font&gt;" style="text;html=1;align=center;verticalAlign=middle;resizable=0;points=[];autosize=1;strokeColor=none;fillColor=none;" vertex="1" parent="1">
          <mxGeometry x="552.0600000000001" y="360" width="30" height="30" as="geometry" />
        </mxCell>
        <mxCell id="diXyLnKeCmdb708wemNT-146" value="&lt;font style=&quot;font-size: 7px;&quot;&gt;Yes&lt;/font&gt;" style="text;html=1;align=center;verticalAlign=middle;resizable=0;points=[];autosize=1;strokeColor=none;fillColor=none;" vertex="1" parent="1">
          <mxGeometry x="553.0600000000001" y="729.5" width="30" height="30" as="geometry" />
        </mxCell>
        <mxCell id="diXyLnKeCmdb708wemNT-147" value="&lt;font style=&quot;font-size: 7px;&quot;&gt;No&lt;/font&gt;" style="text;html=1;align=center;verticalAlign=middle;resizable=0;points=[];autosize=1;strokeColor=none;fillColor=none;" vertex="1" parent="1">
          <mxGeometry x="603.0600000000001" y="702.5" width="30" height="30" as="geometry" />
        </mxCell>
        <mxCell id="diXyLnKeCmdb708wemNT-148" value="&lt;font style=&quot;font-size: 7px;&quot;&gt;No&lt;/font&gt;" style="text;html=1;align=center;verticalAlign=middle;resizable=0;points=[];autosize=1;strokeColor=none;fillColor=none;" vertex="1" parent="1">
          <mxGeometry x="603.0600000000001" y="334" width="30" height="30" as="geometry" />
        </mxCell>
        <mxCell id="diXyLnKeCmdb708wemNT-149" style="edgeStyle=orthogonalEdgeStyle;rounded=0;orthogonalLoop=1;jettySize=auto;html=1;exitX=0.5;exitY=1;exitDx=0;exitDy=0;entryX=0;entryY=0.5;entryDx=0;entryDy=0;" edge="1" parent="1" source="diXyLnKeCmdb708wemNT-151" target="diXyLnKeCmdb708wemNT-142">
          <mxGeometry relative="1" as="geometry">
            <mxPoint x="560.0600000000001" y="537.5" as="targetPoint" />
            <Array as="points">
              <mxPoint x="560.0600000000001" y="540" />
              <mxPoint x="460.06" y="540" />
              <mxPoint x="460.06" y="775" />
            </Array>
          </mxGeometry>
        </mxCell>
        <mxCell id="diXyLnKeCmdb708wemNT-150" style="edgeStyle=orthogonalEdgeStyle;rounded=0;orthogonalLoop=1;jettySize=auto;html=1;exitX=0;exitY=0.5;exitDx=0;exitDy=0;entryX=0;entryY=0.5;entryDx=0;entryDy=0;" edge="1" parent="1" source="diXyLnKeCmdb708wemNT-151" target="diXyLnKeCmdb708wemNT-132">
          <mxGeometry relative="1" as="geometry" />
        </mxCell>
        <mxCell id="diXyLnKeCmdb708wemNT-151" value="Succesful" style="shape=hexagon;perimeter=hexagonPerimeter2;whiteSpace=wrap;html=1;fixedSize=1;fillColor=#fff2cc;strokeColor=#d6b656;" vertex="1" parent="1">
          <mxGeometry x="510.06000000000006" y="487.5" width="100" height="30" as="geometry" />
        </mxCell>
        <mxCell id="diXyLnKeCmdb708wemNT-152" value="&lt;font style=&quot;font-size: 7px;&quot;&gt;Yes&lt;/font&gt;" style="text;html=1;align=center;verticalAlign=middle;resizable=0;points=[];autosize=1;strokeColor=none;fillColor=none;" vertex="1" parent="1">
          <mxGeometry x="552.0600000000001" y="510" width="30" height="30" as="geometry" />
        </mxCell>
        <mxCell id="diXyLnKeCmdb708wemNT-153" value="&lt;font style=&quot;font-size: 7px;&quot;&gt;No&lt;/font&gt;" style="text;html=1;align=center;verticalAlign=middle;resizable=0;points=[];autosize=1;strokeColor=none;fillColor=none;" vertex="1" parent="1">
          <mxGeometry x="488.06" y="481" width="30" height="30" as="geometry" />
        </mxCell>
        <mxCell id="diXyLnKeCmdb708wemNT-157" style="edgeStyle=orthogonalEdgeStyle;rounded=0;orthogonalLoop=1;jettySize=auto;html=1;exitX=0.5;exitY=1;exitDx=0;exitDy=0;entryX=0.5;entryY=0;entryDx=0;entryDy=0;" edge="1" parent="1" source="diXyLnKeCmdb708wemNT-154" target="diXyLnKeCmdb708wemNT-156">
          <mxGeometry relative="1" as="geometry" />
        </mxCell>
        <mxCell id="diXyLnKeCmdb708wemNT-154" value="{UserName} Timeline" style="rounded=1;arcSize=10;whiteSpace=wrap;html=1;align=center;fillColor=#d5e8d4;strokeColor=#82b366;" vertex="1" parent="1">
          <mxGeometry x="260" y="390" width="120" height="30" as="geometry" />
        </mxCell>
        <mxCell id="diXyLnKeCmdb708wemNT-166" style="edgeStyle=orthogonalEdgeStyle;rounded=0;orthogonalLoop=1;jettySize=auto;html=1;exitX=0.5;exitY=1;exitDx=0;exitDy=0;entryX=0.5;entryY=0;entryDx=0;entryDy=0;" edge="1" parent="1" source="diXyLnKeCmdb708wemNT-156" target="diXyLnKeCmdb708wemNT-109">
          <mxGeometry relative="1" as="geometry" />
        </mxCell>
        <mxCell id="diXyLnKeCmdb708wemNT-156" value="{UserName} Latest 32 Cheep Readable" style="rounded=1;arcSize=10;whiteSpace=wrap;html=1;align=center;fillColor=#d5e8d4;strokeColor=#82b366;" vertex="1" parent="1">
          <mxGeometry x="210" y="440" width="220" height="30" as="geometry" />
        </mxCell>
        <mxCell id="diXyLnKeCmdb708wemNT-162" style="edgeStyle=orthogonalEdgeStyle;rounded=0;orthogonalLoop=1;jettySize=auto;html=1;exitX=0.5;exitY=1;exitDx=0;exitDy=0;entryX=0.5;entryY=0;entryDx=0;entryDy=0;" edge="1" parent="1" source="diXyLnKeCmdb708wemNT-158" target="diXyLnKeCmdb708wemNT-161">
          <mxGeometry relative="1" as="geometry" />
        </mxCell>
        <mxCell id="diXyLnKeCmdb708wemNT-158" value="Next" style="ellipse;whiteSpace=wrap;html=1;fillColor=#f8cecc;strokeColor=#b85450;" vertex="1" parent="1">
          <mxGeometry x="270" y="240" width="100" height="30" as="geometry" />
        </mxCell>
        <mxCell id="diXyLnKeCmdb708wemNT-163" style="edgeStyle=orthogonalEdgeStyle;rounded=0;orthogonalLoop=1;jettySize=auto;html=1;exitX=0.5;exitY=1;exitDx=0;exitDy=0;entryX=0.5;entryY=0;entryDx=0;entryDy=0;" edge="1" parent="1" source="diXyLnKeCmdb708wemNT-161" target="diXyLnKeCmdb708wemNT-117">
          <mxGeometry relative="1" as="geometry" />
        </mxCell>
        <mxCell id="diXyLnKeCmdb708wemNT-161" value="Next 32 Cheeps Readable" style="rounded=1;arcSize=10;whiteSpace=wrap;html=1;align=center;fillColor=#d5e8d4;strokeColor=#82b366;" vertex="1" parent="1">
          <mxGeometry x="242.5" y="290" width="155" height="30" as="geometry" />
        </mxCell>
        <mxCell id="diXyLnKeCmdb708wemNT-168" style="edgeStyle=orthogonalEdgeStyle;rounded=0;orthogonalLoop=1;jettySize=auto;html=1;exitX=0.5;exitY=1;exitDx=0;exitDy=0;entryX=0.5;entryY=0;entryDx=0;entryDy=0;" edge="1" parent="1" source="diXyLnKeCmdb708wemNT-167" target="diXyLnKeCmdb708wemNT-83">
          <mxGeometry relative="1" as="geometry" />
        </mxCell>
        <mxCell id="diXyLnKeCmdb708wemNT-167" value="&lt;font style=&quot;font-size: 18px;&quot;&gt;&lt;b&gt;Browsing&lt;/b&gt;&lt;/font&gt;" style="text;html=1;align=center;verticalAlign=middle;whiteSpace=wrap;rounded=0;strokeColor=default;" vertex="1" parent="1">
          <mxGeometry x="275" y="80" width="90" height="30" as="geometry" />
        </mxCell>
        <mxCell id="diXyLnKeCmdb708wemNT-170" style="edgeStyle=orthogonalEdgeStyle;rounded=0;orthogonalLoop=1;jettySize=auto;html=1;exitX=0.5;exitY=1;exitDx=0;exitDy=0;entryX=0.5;entryY=0;entryDx=0;entryDy=0;" edge="1" parent="1" source="diXyLnKeCmdb708wemNT-169" target="diXyLnKeCmdb708wemNT-121">
          <mxGeometry relative="1" as="geometry" />
        </mxCell>
        <mxCell id="diXyLnKeCmdb708wemNT-169" value="&lt;font style=&quot;font-size: 18px;&quot;&gt;&lt;b&gt;Registration&lt;/b&gt;&lt;/font&gt;" style="text;html=1;align=center;verticalAlign=middle;whiteSpace=wrap;rounded=0;strokeColor=default;" vertex="1" parent="1">
          <mxGeometry x="500.09000000000003" y="80" width="119.94" height="30" as="geometry" />
        </mxCell>
        <mxCell id="diXyLnKeCmdb708wemNT-171" value="&lt;font style=&quot;font-size: 22px;&quot;&gt;&lt;b style=&quot;&quot;&gt;Unauthorized Journey&lt;/b&gt;&lt;/font&gt;" style="text;html=1;align=center;verticalAlign=middle;whiteSpace=wrap;rounded=0;strokeColor=default;" vertex="1" parent="1">
          <mxGeometry x="310" y="20" width="278" height="30" as="geometry" />
        </mxCell>
      </root>
    </mxGraphModel>
  </diagram>
</mxfile>
